# Blender 3.2.0
# www.blender.org
mtllib Cornerroad.mtl
g roadmarking.001_Cube.036
v -0.213575 0.432287 2.803920
v -0.213575 0.584732 2.803920
v -0.213575 0.432287 1.136151
v -0.213575 0.584732 1.136151
v 0.178986 0.432287 2.803920
v 0.178986 0.584732 2.803920
v 0.178986 0.432287 1.136151
v 0.178986 0.584732 1.136151
v -0.213575 0.432287 6.639791
v -0.213575 0.584732 6.639791
v -0.213575 0.432287 4.972021
v -0.213575 0.584732 4.972021
v 0.178986 0.432287 6.639791
v 0.178986 0.584732 6.639791
v 0.178986 0.432287 4.972021
v 0.178986 0.584732 4.972021
vn -1.0000 -0.0000 -0.0000
vn -0.0000 -0.0000 -1.0000
vn 1.0000 -0.0000 -0.0000
vn -0.0000 -0.0000 1.0000
vn -0.0000 -1.0000 -0.0000
vn -0.0000 1.0000 -0.0000
vt 0.375000 0.000000
vt 0.375000 1.000000
vt 0.125000 0.750000
vt 0.625000 0.000000
vt 0.625000 1.000000
vt 0.875000 0.750000
vt 0.375000 0.250000
vt 0.125000 0.500000
vt 0.625000 0.250000
vt 0.875000 0.500000
vt 0.375000 0.750000
vt 0.625000 0.750000
vt 0.375000 0.500000
vt 0.625000 0.500000
vt 0.375000 0.000000
vt 0.375000 1.000000
vt 0.125000 0.750000
vt 0.625000 0.000000
vt 0.625000 1.000000
vt 0.875000 0.750000
vt 0.375000 0.250000
vt 0.125000 0.500000
vt 0.625000 0.250000
vt 0.875000 0.500000
vt 0.375000 0.750000
vt 0.625000 0.750000
vt 0.375000 0.500000
vt 0.625000 0.500000
s 0
f 1/1/1 2/4/1 4/9/1 3/7/1
f 3/7/2 4/9/2 8/14/2 7/13/2
f 7/13/3 8/14/3 6/12/3 5/11/3
f 5/11/4 6/12/4 2/5/4 1/2/4
f 3/8/5 7/13/5 5/11/5 1/3/5
f 8/14/6 4/10/6 2/6/6 6/12/6
f 9/15/1 10/18/1 12/23/1 11/21/1
f 11/21/2 12/23/2 16/28/2 15/27/2
f 15/27/3 16/28/3 14/26/3 13/25/3
f 13/25/4 14/26/4 10/19/4 9/16/4
f 11/22/5 15/27/5 13/25/5 9/17/5
f 16/28/6 12/24/6 10/20/6 14/26/6
g roadmarking.002_Cube.038
v 3.202170 0.436048 0.084880
v 3.202170 0.588493 0.084880
v 1.534401 0.436048 0.084880
v 1.534401 0.588493 0.084880
v 3.202170 0.436048 -0.307681
v 3.202170 0.588493 -0.307681
v 1.534401 0.436048 -0.307681
v 1.534401 0.588493 -0.307681
v 7.038040 0.436048 0.084880
v 7.038040 0.588493 0.084880
v 5.370271 0.436048 0.084880
v 5.370271 0.588493 0.084880
v 7.038040 0.436048 -0.307682
v 7.038040 0.588493 -0.307682
v 5.370271 0.436048 -0.307681
v 5.370271 0.588493 -0.307681
vn -0.0000 -0.0000 1.0000
vn -1.0000 -0.0000 -0.0000
vn -0.0000 -0.0000 -1.0000
vn 1.0000 -0.0000 -0.0000
vn -0.0000 -1.0000 -0.0000
vn -0.0000 1.0000 -0.0000
vt 0.375000 0.000000
vt 0.375000 1.000000
vt 0.125000 0.750000
vt 0.625000 0.000000
vt 0.625000 1.000000
vt 0.875000 0.750000
vt 0.375000 0.250000
vt 0.125000 0.500000
vt 0.625000 0.250000
vt 0.875000 0.500000
vt 0.375000 0.750000
vt 0.625000 0.750000
vt 0.375000 0.500000
vt 0.625000 0.500000
vt 0.375000 0.000000
vt 0.375000 1.000000
vt 0.125000 0.750000
vt 0.625000 0.000000
vt 0.625000 1.000000
vt 0.875000 0.750000
vt 0.375000 0.250000
vt 0.125000 0.500000
vt 0.625000 0.250000
vt 0.875000 0.500000
vt 0.375000 0.750000
vt 0.625000 0.750000
vt 0.375000 0.500000
vt 0.625000 0.500000
s 0
f 17/29/7 18/32/7 20/37/7 19/35/7
f 19/35/8 20/37/8 24/42/8 23/41/8
f 23/41/9 24/42/9 22/40/9 21/39/9
f 21/39/10 22/40/10 18/33/10 17/30/10
f 19/36/11 23/41/11 21/39/11 17/31/11
f 24/42/12 20/38/12 18/34/12 22/40/12
f 25/43/7 26/46/7 28/51/7 27/49/7
f 27/49/8 28/51/8 32/56/8 31/55/8
f 31/55/9 32/56/9 30/54/9 29/53/9
f 29/53/10 30/54/10 26/47/10 25/44/10
f 27/50/11 31/55/11 29/53/11 25/45/11
f 32/56/12 28/52/12 26/48/12 30/54/12
g Cube.010_Cube.027
v 5.394203 -0.588580 8.019108
v 5.394203 0.591420 8.019108
v 5.394203 -0.588580 5.378334
v 5.394203 0.591420 5.378334
v 8.051020 -0.588580 8.019108
v 8.051020 0.591420 8.019108
v 8.051020 -0.588580 5.378334
v 8.051020 0.591420 5.378334
v -8.010338 -0.588580 -5.392872
v -8.010338 0.591419 -5.392872
v -8.010338 -0.588580 -7.984855
v -8.010338 0.591419 -7.984855
v -5.430269 -0.588580 -5.392872
v -5.430269 0.591419 -5.392872
v -5.450645 -0.588580 -7.984855
v -5.450645 0.591419 -7.984855
v 7.960050 -0.588580 -5.392872
v 7.960050 0.591419 -5.392872
v 7.960050 -0.588580 -7.984855
v 7.960050 0.591419 -7.984855
v -8.010338 -0.588580 8.007728
v -8.010338 0.591419 8.007728
v -5.430269 -0.588580 8.007728
v -5.430269 0.591419 8.007728
vn -1.0000 -0.0000 -0.0000
vn -0.0000 -0.0000 -1.0000
vn 1.0000 -0.0000 -0.0000
vn -0.0000 -0.0000 1.0000
vn -0.0000 -1.0000 -0.0000
vn -0.0000 1.0000 -0.0000
vt 0.375000 0.000000
vt 0.375000 1.000000
vt 0.125000 0.750000
vt 0.625000 0.000000
vt 0.625000 1.000000
vt 0.875000 0.750000
vt 0.375000 0.250000
vt 0.125000 0.500000
vt 0.625000 0.250000
vt 0.875000 0.500000
vt 0.375000 0.750000
vt 0.625000 0.750000
vt 0.375000 0.500000
vt 0.625000 0.500000
vt 0.125000 0.750000
vt 0.375000 0.000000
vt 0.875000 0.750000
vt 0.625000 0.000000
vt 0.375000 0.250000
vt 0.125000 0.500000
vt 0.625000 0.250000
vt 0.875000 0.500000
vt 0.375000 0.750000
vt 0.625000 0.750000
vt 0.375000 0.500000
vt 0.625000 0.500000
vt 0.375000 0.750000
vt 0.625000 0.750000
vt 0.375000 0.500000
vt 0.625000 0.500000
vt 0.125000 0.750000
vt 0.375000 1.000000
vt 0.375000 0.000000
vt 0.625000 1.000000
vt 0.875000 0.750000
vt 0.625000 0.000000
vt 0.375000 0.750000
vt 0.625000 0.750000
s 0
f 33/57/13 34/60/13 36/65/13 35/63/13
f 35/63/14 36/65/14 40/70/14 39/69/14
f 39/69/15 40/70/15 38/68/15 37/67/15
f 37/67/16 38/68/16 34/61/16 33/58/16
f 35/64/17 39/69/17 37/67/17 33/59/17
f 40/70/18 36/66/18 34/62/18 38/68/18
f 41/72/13 42/74/13 44/77/13 43/75/13
f 43/75/14 44/77/14 48/82/14 47/81/14
f 48/82/18 46/80/18 50/84/18 52/86/18
f 41/71/17 45/79/17 55/93/17 53/87/17
f 43/76/17 47/81/17 45/79/17 41/71/17
f 48/82/18 44/78/18 42/73/18 46/80/18
f 51/85/15 52/86/15 50/84/15 49/83/15
f 47/81/14 48/82/14 52/86/14 51/85/14
f 46/80/16 45/79/16 49/83/16 50/84/16
f 45/79/17 47/81/17 51/85/17 49/83/17
f 55/93/16 56/94/16 54/90/16 53/88/16
f 46/80/18 42/73/18 54/91/18 56/94/18
f 45/79/15 46/80/15 56/94/15 55/93/15
f 42/74/13 41/72/13 53/89/13 54/92/13
g roadbase.001_Cube.020
v 5.390362 0.509492 -5.400144
v 5.390362 -0.490508 -5.400144
v 5.390362 0.509492 5.361664
v 5.390362 -0.490508 5.361664
v -5.438997 0.509492 -5.407645
v -5.438997 -0.490508 -5.407645
v -5.438997 0.509492 5.361664
v -5.438997 -0.490508 5.361664
v 5.390362 -0.490508 -8.025887
v -5.438997 -0.490508 -8.025887
v 5.390362 0.509492 -8.025887
v -5.438997 0.509492 -8.025887
v 7.986450 0.509492 -5.400144
v 7.986450 -0.490508 -5.400144
v 7.986450 0.509492 5.361664
v 7.986450 -0.490508 5.361664
v -5.438997 -0.490508 7.974112
v -5.438997 0.509492 7.974112
v 5.390362 0.509492 7.974112
v 5.390362 -0.490508 7.974112
v -8.025286 -0.490508 -5.407645
v -8.025286 -0.490508 5.361664
v -8.025286 0.509492 5.361664
v -8.025286 0.509492 -5.407645
vn -0.0000 1.0000 -0.0000
vn -0.0000 -1.0000 -0.0000
vn -0.0000 -0.0000 1.0000
vn -0.0000 -0.0000 -1.0000
vn 1.0000 -0.0000 -0.0000
vn -1.0000 -0.0000 -0.0000
vt 0.625000 0.500000
vt 0.375000 0.500000
vt 0.625000 0.750000
vt 0.375000 0.750000
vt 0.875000 0.500000
vt 0.625000 0.250000
vt 0.125000 0.500000
vt 0.375000 0.250000
vt 0.875000 0.750000
vt 0.625000 0.000000
vt 0.125000 0.750000
vt 0.375000 0.000000
vt 0.375000 0.500000
vt 0.125000 0.500000
vt 0.375000 0.250000
vt 0.625000 0.500000
vt 0.875000 0.500000
vt 0.625000 0.250000
vt 0.625000 0.500000
vt 0.375000 0.500000
vt 0.625000 0.750000
vt 0.375000 0.750000
vt 0.125000 0.750000
vt 0.375000 1.000000
vt 0.375000 0.000000
vt 0.625000 1.000000
vt 0.875000 0.750000
vt 0.625000 0.000000
vt 0.625000 0.750000
vt 0.375000 0.750000
vt 0.125000 0.500000
vt 0.375000 0.250000
vt 0.125000 0.750000
vt 0.375000 0.000000
vt 0.875000 0.750000
vt 0.625000 0.000000
vt 0.875000 0.500000
vt 0.625000 0.250000
s 0
usemtl Material.005
f 57/95/19 61/99/19 63/103/19 59/97/19
f 64/105/20 60/98/20 76/124/20 73/117/20
f 62/101/20 64/105/20 78/127/20 77/125/20
f 62/101/20 58/96/20 60/98/20 64/105/20
f 59/97/21 60/98/21 72/116/21 71/115/21
f 58/96/20 62/101/20 66/108/20 65/107/20
f 66/109/22 68/112/22 67/110/22 65/107/22
f 61/99/19 57/95/19 67/110/19 68/111/19
f 57/95/23 58/96/23 65/107/23 67/110/23
f 62/102/24 61/100/24 68/112/24 66/109/24
f 70/114/23 69/113/23 71/115/23 72/116/23
f 58/96/22 57/95/22 69/113/22 70/114/22
f 60/98/20 58/96/20 70/114/20 72/116/20
f 57/95/19 59/97/19 71/115/19 69/113/19
f 76/124/21 75/123/21 74/120/21 73/118/21
f 59/97/19 63/103/19 74/121/19 75/123/19
f 60/98/23 59/97/23 75/123/23 76/124/23
f 63/104/24 64/106/24 73/119/24 74/122/24
f 78/128/24 79/130/24 80/132/24 77/126/24
f 63/103/19 61/99/19 80/131/19 79/129/19
f 61/100/22 62/102/22 77/126/22 80/132/22
f 64/106/21 63/104/21 79/130/21 78/128/21
