# Blender 3.2.0
# www.blender.org
mtllib StraightRoad.mtl
g roadmarking_Cube.014
v 2.711842 0.363887 0.075135
v 2.711842 0.516332 0.075135
v 1.044073 0.363887 0.075135
v 1.044073 0.516332 0.075135
v 2.711842 0.363887 -0.317427
v 2.711842 0.516332 -0.317427
v 1.044073 0.363887 -0.317427
v 1.044073 0.516332 -0.317427
v 6.547712 0.363887 0.075135
v 6.547712 0.516332 0.075135
v 4.879943 0.363887 0.075135
v 4.879943 0.516332 0.075135
v 6.547712 0.363887 -0.317427
v 6.547712 0.516332 -0.317427
v 4.879943 0.363887 -0.317427
v 4.879943 0.516332 -0.317427
v -4.832378 0.363887 0.104821
v -4.832378 0.516332 0.104821
v -6.500147 0.363887 0.104821
v -6.500147 0.516332 0.104821
v -4.832378 0.363887 -0.287741
v -4.832378 0.516332 -0.287741
v -6.500147 0.363887 -0.287741
v -6.500147 0.516332 -0.287741
v -0.996507 0.363887 0.104821
v -0.996507 0.516332 0.104821
v -2.664277 0.363887 0.104821
v -2.664277 0.516332 0.104821
v -0.996507 0.363887 -0.287741
v -0.996507 0.516332 -0.287741
v -2.664277 0.363887 -0.287741
v -2.664277 0.516332 -0.287741
vn -0.0000 -0.0000 1.0000
vn -1.0000 -0.0000 -0.0000
vn -0.0000 -0.0000 -1.0000
vn 1.0000 -0.0000 -0.0000
vn -0.0000 -1.0000 -0.0000
vn -0.0000 1.0000 -0.0000
vt 0.375000 0.000000
vt 0.375000 1.000000
vt 0.125000 0.750000
vt 0.625000 0.000000
vt 0.625000 1.000000
vt 0.875000 0.750000
vt 0.375000 0.250000
vt 0.125000 0.500000
vt 0.625000 0.250000
vt 0.875000 0.500000
vt 0.375000 0.750000
vt 0.625000 0.750000
vt 0.375000 0.500000
vt 0.625000 0.500000
vt 0.375000 0.000000
vt 0.375000 1.000000
vt 0.125000 0.750000
vt 0.625000 0.000000
vt 0.625000 1.000000
vt 0.875000 0.750000
vt 0.375000 0.250000
vt 0.125000 0.500000
vt 0.625000 0.250000
vt 0.875000 0.500000
vt 0.375000 0.750000
vt 0.625000 0.750000
vt 0.375000 0.500000
vt 0.625000 0.500000
vt 0.375000 0.000000
vt 0.375000 1.000000
vt 0.125000 0.750000
vt 0.625000 0.000000
vt 0.625000 1.000000
vt 0.875000 0.750000
vt 0.375000 0.250000
vt 0.125000 0.500000
vt 0.625000 0.250000
vt 0.875000 0.500000
vt 0.375000 0.750000
vt 0.625000 0.750000
vt 0.375000 0.500000
vt 0.625000 0.500000
vt 0.375000 0.000000
vt 0.375000 1.000000
vt 0.125000 0.750000
vt 0.625000 0.000000
vt 0.625000 1.000000
vt 0.875000 0.750000
vt 0.375000 0.250000
vt 0.125000 0.500000
vt 0.625000 0.250000
vt 0.875000 0.500000
vt 0.375000 0.750000
vt 0.625000 0.750000
vt 0.375000 0.500000
vt 0.625000 0.500000
s 0
f 1/1/1 2/4/1 4/9/1 3/7/1
f 3/7/2 4/9/2 8/14/2 7/13/2
f 7/13/3 8/14/3 6/12/3 5/11/3
f 5/11/4 6/12/4 2/5/4 1/2/4
f 3/8/5 7/13/5 5/11/5 1/3/5
f 8/14/6 4/10/6 2/6/6 6/12/6
f 9/15/1 10/18/1 12/23/1 11/21/1
f 11/21/2 12/23/2 16/28/2 15/27/2
f 15/27/3 16/28/3 14/26/3 13/25/3
f 13/25/4 14/26/4 10/19/4 9/16/4
f 11/22/5 15/27/5 13/25/5 9/17/5
f 16/28/6 12/24/6 10/20/6 14/26/6
f 17/29/1 18/32/1 20/37/1 19/35/1
f 19/35/2 20/37/2 24/42/2 23/41/2
f 23/41/3 24/42/3 22/40/3 21/39/3
f 21/39/4 22/40/4 18/33/4 17/30/4
f 19/36/5 23/41/5 21/39/5 17/31/5
f 24/42/6 20/38/6 18/34/6 22/40/6
f 25/43/1 26/46/1 28/51/1 27/49/1
f 27/49/2 28/51/2 32/56/2 31/55/2
f 31/55/3 32/56/3 30/54/3 29/53/3
f 29/53/4 30/54/4 26/47/4 25/44/4
f 27/50/5 31/55/5 29/53/5 25/45/5
f 32/56/6 28/52/6 26/48/6 30/54/6
g Cube.005_Cube.008
v 8.001968 -0.580770 -5.379598
v 8.001968 0.580770 -5.379598
v -8.001968 -0.580770 -5.387729
v -8.001968 0.580770 -5.387729
v 8.001970 -0.580770 -8.012271
v 8.001970 0.580770 -8.012271
v -8.001968 -0.580770 -8.020403
v -8.001968 0.580770 -8.020403
v 8.034698 -0.580770 8.012458
v 8.034698 0.580770 8.012458
v -8.035864 -0.580770 8.012456
v -8.035864 0.580770 8.012456
v 8.034697 -0.580770 5.383656
v 8.034697 0.580770 5.383656
v -8.033531 -0.580770 5.391427
v -8.033531 0.580770 5.391427
vn -0.0005 -0.0000 1.0000
vn -1.0000 -0.0000 -0.0000
vn 0.0005 -0.0000 -1.0000
vn 1.0000 -0.0000 -0.0000
vn -0.0000 -1.0000 -0.0000
vn -0.0000 1.0000 -0.0000
vn -0.0000 -0.0000 1.0000
vn -1.0000 -0.0000 -0.0009
vn -0.0005 -0.0000 -1.0000
vt 0.375000 0.000000
vt 0.375000 1.000000
vt 0.125000 0.750000
vt 0.625000 0.000000
vt 0.625000 1.000000
vt 0.875000 0.750000
vt 0.375000 0.250000
vt 0.125000 0.500000
vt 0.625000 0.250000
vt 0.875000 0.500000
vt 0.375000 0.750000
vt 0.625000 0.750000
vt 0.375000 0.500000
vt 0.625000 0.500000
vt 0.375000 0.000000
vt 0.375000 1.000000
vt 0.125000 0.750000
vt 0.625000 0.000000
vt 0.625000 1.000000
vt 0.875000 0.750000
vt 0.375000 0.250000
vt 0.125000 0.500000
vt 0.625000 0.250000
vt 0.875000 0.500000
vt 0.375000 0.750000
vt 0.625000 0.750000
vt 0.375000 0.500000
vt 0.625000 0.500000
s 0
f 33/57/7 34/60/7 36/65/7 35/63/7
f 35/63/8 36/65/8 40/70/8 39/69/8
f 39/69/9 40/70/9 38/68/9 37/67/9
f 37/67/10 38/68/10 34/61/10 33/58/10
f 35/64/11 39/69/11 37/67/11 33/59/11
f 40/70/12 36/66/12 34/62/12 38/68/12
f 41/71/13 42/74/13 44/79/13 43/77/13
f 43/77/14 44/79/14 48/84/14 47/83/14
f 47/83/15 48/84/15 46/82/15 45/81/15
f 45/81/10 46/82/10 42/75/10 41/72/10
f 43/78/11 47/83/11 45/81/11 41/73/11
f 48/84/12 44/80/12 42/76/12 46/82/12
g roadbase.003_Cube.018
v -5.377438 0.500000 -5.415002
v -5.377438 -0.500000 -5.415002
v 5.384370 0.500000 -5.415002
v 5.384370 -0.500000 -5.415002
v -5.384939 0.500000 5.414356
v -5.384939 -0.500000 5.414356
v 5.384370 0.500000 5.414356
v 5.384370 -0.500000 5.414356
v -8.003181 -0.500000 -5.415002
v -8.003181 -0.500000 5.414357
v -8.003181 0.500000 -5.415002
v -8.003181 0.500000 5.414357
v -5.377438 0.500000 -7.999353
v -5.377438 -0.500000 -7.999353
v 5.384369 0.500000 -7.999353
v 5.384369 -0.500000 -7.999353
v 7.996818 -0.500000 5.414356
v 7.996818 0.500000 5.414356
v 7.996818 0.500000 -5.415003
v 7.996818 -0.500000 -5.415003
v -5.384938 -0.500000 8.000646
v 5.384370 -0.500000 8.000646
v 5.384370 0.500000 8.000646
v -5.384938 0.500000 8.000646
vn -0.0000 1.0000 -0.0000
vn -0.0000 -1.0000 -0.0000
vn 1.0000 -0.0000 -0.0000
vn -1.0000 -0.0000 -0.0000
vn -0.0000 -0.0000 -1.0000
vn -0.0000 -0.0000 1.0000
vt 0.625000 0.500000
vt 0.375000 0.500000
vt 0.625000 0.750000
vt 0.375000 0.750000
vt 0.875000 0.500000
vt 0.625000 0.250000
vt 0.125000 0.500000
vt 0.375000 0.250000
vt 0.875000 0.750000
vt 0.625000 0.000000
vt 0.125000 0.750000
vt 0.375000 0.000000
vt 0.375000 0.500000
vt 0.125000 0.500000
vt 0.375000 0.250000
vt 0.625000 0.500000
vt 0.875000 0.500000
vt 0.625000 0.250000
vt 0.625000 0.500000
vt 0.375000 0.500000
vt 0.625000 0.750000
vt 0.375000 0.750000
vt 0.125000 0.750000
vt 0.375000 1.000000
vt 0.375000 0.000000
vt 0.625000 1.000000
vt 0.875000 0.750000
vt 0.625000 0.000000
vt 0.625000 0.750000
vt 0.375000 0.750000
vt 0.125000 0.500000
vt 0.375000 0.250000
vt 0.125000 0.750000
vt 0.375000 0.000000
vt 0.875000 0.750000
vt 0.625000 0.000000
vt 0.875000 0.500000
vt 0.625000 0.250000
s 0
usemtl Material.004
f 49/85/16 53/89/16 55/93/16 51/87/16
f 56/95/17 52/88/17 68/114/17 65/107/17
f 54/91/17 56/95/17 70/117/17 69/115/17
f 54/91/17 50/86/17 52/88/17 56/95/17
f 51/87/18 52/88/18 64/106/18 63/105/18
f 50/86/17 54/91/17 58/98/17 57/97/17
f 58/99/19 60/102/19 59/100/19 57/97/19
f 53/89/16 49/85/16 59/100/16 60/101/16
f 49/85/20 50/86/20 57/97/20 59/100/20
f 54/92/21 53/90/21 60/102/21 58/99/21
f 62/104/20 61/103/20 63/105/20 64/106/20
f 50/86/19 49/85/19 61/103/19 62/104/19
f 52/88/17 50/86/17 62/104/17 64/106/17
f 49/85/16 51/87/16 63/105/16 61/103/16
f 68/114/18 67/113/18 66/110/18 65/108/18
f 51/87/16 55/93/16 66/111/16 67/113/16
f 52/88/20 51/87/20 67/113/20 68/114/20
f 55/94/21 56/96/21 65/109/21 66/112/21
f 70/118/21 71/120/21 72/122/21 69/116/21
f 55/93/16 53/89/16 72/121/16 71/119/16
f 53/90/19 54/92/19 69/116/19 72/122/19
f 56/96/18 55/94/18 71/120/18 70/118/18
